<svg xmlns="http://www.w3.org/2000/svg" viewBox="0 0 1024 1024">
	<g id="grid" fill="none" stroke="#000" opacity=".2">
		<g id="rings">
			<path stroke-width="2.5"
				d="M511.1 14l154.3 24.1L802 108.2l112.8 110.4 68.8 138.9 25.6 154.4-25.6 154.4-68.8 136.5-110.4 111.6-140.2 70.1-153.1 25.5-152-26.7L219 914.4 109.7 802.8l-70-140.1L14.8 512l24.9-154.5 71.2-137.7 110.4-110.4 137.8-68.9z" />
			<path stroke-width="2.5"
				d="M512.9 123.6l120.5 18.9L740 197.2l88.1 86.2 53.7 108.4 20 120.5-20 120.5-53.7 106.6-86.2 87.1-109.4 54.7-119.6 20-118.6-20.9-109.4-53.8-85.3-87.1L144.9 630l-19.4-117.6 19.4-120.6 55.6-107.5 86.2-86.2 107.6-53.8z" />
			<path stroke-width="2.5"
				d="M510.6 237.6l84.8 13.3 75 38.5 61.9 60.6 37.8 76.3 14.1 84.7-14.1 84.8-37.8 75-60.6 61.3-77 38.4-84.1 14-83.4-14.6-77-37.8-59.9-61.3-38.5-77-13.7-82.7 13.7-84.8 39.1-75.7 60.7-60.6 75.6-37.8z" />
			<path stroke-width="3"
				d="M510.9 352.8l49 7.7 43.4 22.2 35.9 35.1 21.9 44.2 8.1 49.1-8.1 49-21.9 43.4-35.1 35.5-44.6 22.3-48.6 8.1-48.4-8.5L418 639l-34.7-35.5L361 559l-7.9-47.9L361 462l22.7-43.8 35.1-35.1 43.7-21.9z" />
		</g>
		<path id="lines" stroke-miterlimit="10" stroke-width="2"
			d="M914.8 804.7L109.7 219.8M221.3 110.6l583.1 803.8M359.1 38.1l305.1 946.4M514.6 14.6l-1.8 995.1M664.2 38.1L359.1 984.5M804.4 110.5L219 916.8M914.8 219.8l-805.1 583M984.8 357.5L39.7 666.3M1009.2 511.3l-994.3 1.2M983.6 665.1L39.7 358.7" />
	</g>
	<g id="radar" opacity=".9">
		<path fill="#F39C12"
			d="M511.1 64.3l121.1 77.1 154.3-8.3 118.8 92.6 47.5 143.7-3.6 142.5-67.7 117.5-149.6 41.3-220.8-158.9z" />
		<path fill="#2980B9" d="M514.6 64.3l-99.7 148.4-168.6-66.5-79.6 251.7L346 566.5l165.1-53.4z" />
		<path fill="#8E44AD"
			d="M511.1 511.9l-163.9 54.6 98.6-4.7-14.3 61.7 2.4 130.6 77.2 131.5 143.6 60.9-21.3-269.6 97-6.2z" />
	</g>
</svg>